<mxfile host="Electron" modified="2024-03-03T16:26:23.824Z" agent="Mozilla/5.0 (Windows NT 10.0; Win64; x64) AppleWebKit/537.36 (KHTML, like Gecko) draw.io/22.1.21 Chrome/120.0.6099.109 Electron/28.1.0 Safari/537.36" etag="NNexlT0dsnywsXAdz3Oj" version="22.1.21" type="device">
  <diagram name="Page-1" id="CRhISIPOAghAQU4PJGUm">
    <mxGraphModel dx="1621" dy="511" grid="1" gridSize="10" guides="1" tooltips="1" connect="1" arrows="1" fold="1" page="1" pageScale="1" pageWidth="827" pageHeight="1169" math="0" shadow="0">
      <root>
        <mxCell id="0" />
        <mxCell id="1" parent="0" />
        <mxCell id="znvOR-QO3mingYac4HV2-1" value="9" style="ellipse;whiteSpace=wrap;html=1;aspect=fixed;" parent="1" vertex="1">
          <mxGeometry x="470" y="200" width="60" height="60" as="geometry" />
        </mxCell>
        <mxCell id="znvOR-QO3mingYac4HV2-2" value="10" style="ellipse;whiteSpace=wrap;html=1;aspect=fixed;" parent="1" vertex="1">
          <mxGeometry x="540" y="300" width="60" height="60" as="geometry" />
        </mxCell>
        <mxCell id="znvOR-QO3mingYac4HV2-4" value="8" style="ellipse;whiteSpace=wrap;html=1;aspect=fixed;" parent="1" vertex="1">
          <mxGeometry x="430" y="300" width="60" height="60" as="geometry" />
        </mxCell>
        <mxCell id="znvOR-QO3mingYac4HV2-5" value="6" style="ellipse;whiteSpace=wrap;html=1;aspect=fixed;" parent="1" vertex="1">
          <mxGeometry x="340" y="300" width="60" height="60" as="geometry" />
        </mxCell>
        <mxCell id="znvOR-QO3mingYac4HV2-6" value="7" style="ellipse;whiteSpace=wrap;html=1;aspect=fixed;" parent="1" vertex="1">
          <mxGeometry x="384" y="110" width="60" height="60" as="geometry" />
        </mxCell>
        <mxCell id="znvOR-QO3mingYac4HV2-7" value="4" style="ellipse;whiteSpace=wrap;html=1;aspect=fixed;" parent="1" vertex="1">
          <mxGeometry x="260" y="200" width="60" height="60" as="geometry" />
        </mxCell>
        <mxCell id="znvOR-QO3mingYac4HV2-13" value="" style="endArrow=none;html=1;rounded=0;entryX=0;entryY=1;entryDx=0;entryDy=0;" parent="1" target="znvOR-QO3mingYac4HV2-6" edge="1">
          <mxGeometry width="50" height="50" relative="1" as="geometry">
            <mxPoint x="320" y="210" as="sourcePoint" />
            <mxPoint x="370" y="160" as="targetPoint" />
          </mxGeometry>
        </mxCell>
        <mxCell id="znvOR-QO3mingYac4HV2-14" value="" style="endArrow=none;html=1;rounded=0;" parent="1" source="znvOR-QO3mingYac4HV2-8" edge="1">
          <mxGeometry width="50" height="50" relative="1" as="geometry">
            <mxPoint x="230" y="310" as="sourcePoint" />
            <mxPoint x="280" y="260" as="targetPoint" />
          </mxGeometry>
        </mxCell>
        <mxCell id="znvOR-QO3mingYac4HV2-17" value="" style="endArrow=none;html=1;rounded=0;" parent="1" target="znvOR-QO3mingYac4HV2-8" edge="1">
          <mxGeometry width="50" height="50" relative="1" as="geometry">
            <mxPoint x="230" y="310" as="sourcePoint" />
            <mxPoint x="280" y="260" as="targetPoint" />
          </mxGeometry>
        </mxCell>
        <mxCell id="znvOR-QO3mingYac4HV2-8" value="1" style="ellipse;whiteSpace=wrap;html=1;aspect=fixed;" parent="1" vertex="1">
          <mxGeometry x="190" y="300" width="60" height="60" as="geometry" />
        </mxCell>
        <mxCell id="znvOR-QO3mingYac4HV2-18" value="" style="endArrow=none;html=1;rounded=0;exitX=0.367;exitY=-0.022;exitDx=0;exitDy=0;exitPerimeter=0;" parent="1" source="znvOR-QO3mingYac4HV2-5" edge="1">
          <mxGeometry width="50" height="50" relative="1" as="geometry">
            <mxPoint x="265" y="300" as="sourcePoint" />
            <mxPoint x="315" y="250" as="targetPoint" />
          </mxGeometry>
        </mxCell>
        <mxCell id="znvOR-QO3mingYac4HV2-19" value="" style="endArrow=none;html=1;rounded=0;exitX=0;exitY=0;exitDx=0;exitDy=0;entryX=1;entryY=1;entryDx=0;entryDy=0;" parent="1" source="znvOR-QO3mingYac4HV2-1" target="znvOR-QO3mingYac4HV2-6" edge="1">
          <mxGeometry width="50" height="50" relative="1" as="geometry">
            <mxPoint x="375" y="220" as="sourcePoint" />
            <mxPoint x="450" y="170" as="targetPoint" />
          </mxGeometry>
        </mxCell>
        <mxCell id="znvOR-QO3mingYac4HV2-22" value="" style="endArrow=none;html=1;rounded=0;exitX=0.378;exitY=0.011;exitDx=0;exitDy=0;exitPerimeter=0;" parent="1" source="znvOR-QO3mingYac4HV2-2" edge="1">
          <mxGeometry width="50" height="50" relative="1" as="geometry">
            <mxPoint x="550" y="290" as="sourcePoint" />
            <mxPoint x="520" y="250" as="targetPoint" />
          </mxGeometry>
        </mxCell>
        <mxCell id="znvOR-QO3mingYac4HV2-23" value="&lt;font style=&quot;font-size: 16px;&quot;&gt;BST&amp;nbsp;&lt;/font&gt;" style="rounded=1;whiteSpace=wrap;html=1;fillColor=#f8cecc;strokeColor=#b85450;" parent="1" vertex="1">
          <mxGeometry x="350" y="20" width="120" height="60" as="geometry" />
        </mxCell>
        <mxCell id="hof28xNG-sEsZm2b8llT-1" value="&lt;font style=&quot;font-size: 15px;&quot;&gt;Traversing Trees&amp;nbsp;&lt;/font&gt;" style="rounded=1;whiteSpace=wrap;html=1;fillColor=#f8cecc;strokeColor=#b85450;" parent="1" vertex="1">
          <mxGeometry x="-20" y="597" width="100" height="60" as="geometry" />
        </mxCell>
        <mxCell id="hof28xNG-sEsZm2b8llT-3" value="&lt;font style=&quot;font-size: 16px;&quot;&gt;In-Order&lt;br&gt;Left &lt;u&gt;Root&lt;/u&gt; Right&amp;nbsp;&lt;/font&gt;" style="rounded=1;whiteSpace=wrap;html=1;fillColor=#fff2cc;strokeColor=#d6b656;" parent="1" vertex="1">
          <mxGeometry x="300" y="522" width="180" height="60" as="geometry" />
        </mxCell>
        <mxCell id="hof28xNG-sEsZm2b8llT-4" value="&lt;font style=&quot;font-size: 16px;&quot;&gt;Post-Order&lt;br&gt;Left Right &lt;u&gt;Root&lt;/u&gt;&amp;nbsp;&lt;/font&gt;" style="rounded=1;whiteSpace=wrap;html=1;fillColor=#fff2cc;strokeColor=#d6b656;" parent="1" vertex="1">
          <mxGeometry x="304" y="612" width="180" height="60" as="geometry" />
        </mxCell>
        <mxCell id="hof28xNG-sEsZm2b8llT-6" value="" style="shape=curlyBracket;whiteSpace=wrap;html=1;rounded=1;labelPosition=left;verticalLabelPosition=middle;align=right;verticalAlign=middle;" parent="1" vertex="1">
          <mxGeometry x="270" y="487" width="20" height="130" as="geometry" />
        </mxCell>
        <mxCell id="hof28xNG-sEsZm2b8llT-7" value="&lt;font style=&quot;font-size: 16px;&quot;&gt;Pre-Order&lt;br&gt;&lt;u&gt;Root&lt;/u&gt; Left Right&amp;nbsp;&lt;/font&gt;" style="rounded=1;whiteSpace=wrap;html=1;fillColor=#fff2cc;strokeColor=#d6b656;" parent="1" vertex="1">
          <mxGeometry x="300" y="420" width="180" height="60" as="geometry" />
        </mxCell>
        <mxCell id="hof28xNG-sEsZm2b8llT-8" value="&lt;font style=&quot;font-size: 17px;&quot;&gt;7,4,1,6,9,8,10&lt;/font&gt;" style="rounded=1;whiteSpace=wrap;html=1;" parent="1" vertex="1">
          <mxGeometry x="520" y="442" width="180" height="30" as="geometry" />
        </mxCell>
        <mxCell id="hof28xNG-sEsZm2b8llT-9" value="" style="endArrow=none;html=1;rounded=0;exitX=0.5;exitY=0;exitDx=0;exitDy=0;" parent="1" source="znvOR-QO3mingYac4HV2-4" edge="1">
          <mxGeometry width="50" height="50" relative="1" as="geometry">
            <mxPoint x="430" y="310" as="sourcePoint" />
            <mxPoint x="480" y="260" as="targetPoint" />
          </mxGeometry>
        </mxCell>
        <mxCell id="hof28xNG-sEsZm2b8llT-11" value="&lt;span style=&quot;font-size: 17px;&quot;&gt;1,4, 6, 7,8,9 10&amp;nbsp;&lt;/span&gt;" style="rounded=1;whiteSpace=wrap;html=1;" parent="1" vertex="1">
          <mxGeometry x="530" y="537" width="180" height="30" as="geometry" />
        </mxCell>
        <mxCell id="hof28xNG-sEsZm2b8llT-12" value="&lt;span style=&quot;font-size: 17px;&quot;&gt;1,6,4, 8,10, 9, 7&lt;/span&gt;" style="rounded=1;whiteSpace=wrap;html=1;" parent="1" vertex="1">
          <mxGeometry x="525" y="627" width="180" height="30" as="geometry" />
        </mxCell>
        <mxCell id="hof28xNG-sEsZm2b8llT-13" value="&lt;span style=&quot;font-size: 16px;&quot;&gt;Breadth Frist/ Level Traversals&amp;nbsp;&amp;nbsp;&lt;/span&gt;" style="rounded=1;whiteSpace=wrap;html=1;fillColor=#fff2cc;strokeColor=#d6b656;" parent="1" vertex="1">
          <mxGeometry x="100" y="682" width="170" height="60" as="geometry" />
        </mxCell>
        <mxCell id="hof28xNG-sEsZm2b8llT-14" value="&lt;font style=&quot;font-size: 17px;&quot;&gt;7,4,9, 1,6, 8, 10&lt;/font&gt;" style="rounded=1;whiteSpace=wrap;html=1;" parent="1" vertex="1">
          <mxGeometry x="520" y="697" width="190" height="30" as="geometry" />
        </mxCell>
        <mxCell id="hof28xNG-sEsZm2b8llT-15" value="&lt;span style=&quot;font-size: 16px;&quot;&gt;Depth First Traversals&amp;nbsp;&amp;nbsp;&lt;/span&gt;" style="rounded=1;whiteSpace=wrap;html=1;fillColor=#fff2cc;strokeColor=#d6b656;" parent="1" vertex="1">
          <mxGeometry x="100" y="522" width="170" height="60" as="geometry" />
        </mxCell>
        <mxCell id="hof28xNG-sEsZm2b8llT-24" value="" style="shape=curlyBracket;whiteSpace=wrap;html=1;rounded=1;labelPosition=left;verticalLabelPosition=middle;align=right;verticalAlign=middle;" parent="1" vertex="1">
          <mxGeometry x="80" y="567" width="20" height="120" as="geometry" />
        </mxCell>
        <mxCell id="hof28xNG-sEsZm2b8llT-26" value="" style="endArrow=classic;html=1;rounded=0;exitX=1;exitY=0.5;exitDx=0;exitDy=0;" parent="1" source="hof28xNG-sEsZm2b8llT-7" target="hof28xNG-sEsZm2b8llT-8" edge="1">
          <mxGeometry width="50" height="50" relative="1" as="geometry">
            <mxPoint x="470" y="500" as="sourcePoint" />
            <mxPoint x="520" y="460" as="targetPoint" />
          </mxGeometry>
        </mxCell>
        <mxCell id="hof28xNG-sEsZm2b8llT-27" value="" style="endArrow=classic;html=1;rounded=0;exitX=1;exitY=0.5;exitDx=0;exitDy=0;" parent="1" source="hof28xNG-sEsZm2b8llT-3" edge="1">
          <mxGeometry width="50" height="50" relative="1" as="geometry">
            <mxPoint x="470" y="597" as="sourcePoint" />
            <mxPoint x="530" y="550" as="targetPoint" />
          </mxGeometry>
        </mxCell>
        <mxCell id="hof28xNG-sEsZm2b8llT-28" value="" style="endArrow=classic;html=1;rounded=0;exitX=1;exitY=0.5;exitDx=0;exitDy=0;" parent="1" source="hof28xNG-sEsZm2b8llT-4" target="hof28xNG-sEsZm2b8llT-12" edge="1">
          <mxGeometry width="50" height="50" relative="1" as="geometry">
            <mxPoint x="475" y="690" as="sourcePoint" />
            <mxPoint x="525" y="640" as="targetPoint" />
          </mxGeometry>
        </mxCell>
        <mxCell id="hof28xNG-sEsZm2b8llT-29" value="" style="endArrow=classic;html=1;rounded=0;entryX=0;entryY=0.75;entryDx=0;entryDy=0;" parent="1" target="hof28xNG-sEsZm2b8llT-14" edge="1">
          <mxGeometry width="50" height="50" relative="1" as="geometry">
            <mxPoint x="270" y="720" as="sourcePoint" />
            <mxPoint x="320" y="670" as="targetPoint" />
          </mxGeometry>
        </mxCell>
      </root>
    </mxGraphModel>
  </diagram>
</mxfile>
